<svg width="56" height="42" fill="none" xmlns="http://www.w3.org/2000/svg"><path d="M28 .178C12.804.178.45 12.532.45 27.728c0 4.466 1.102 8.874 3.132 12.818a2.31 2.31 0 002.088 1.276c.348 0 .754-.058 1.102-.29 1.16-.58 1.566-2.03.986-3.19-1.682-3.248-2.61-6.96-2.61-10.614C5.148 15.142 15.414 4.876 28 4.876s22.852 10.266 22.852 22.852c0 3.712-.928 7.424-2.61 10.614-.58 1.16-.174 2.552.986 3.19 1.16.58 2.552.174 3.19-.986 2.088-3.886 3.132-8.352 3.132-12.818C55.55 12.532 43.196.178 28 .178z" fill="#6094F9"/><path d="M45.748 25.814l-16.298-3.77c-1.972-.464-4.118.174-5.51 1.624-2.262 2.32-2.204 6.032.058 8.294a5.82 5.82 0 005.568 1.508l16.182-4.118c1.856-.522 1.798-3.074 0-3.538zM28 12.88a2.494 2.494 0 100-4.988 2.494 2.494 0 000 4.988zm-10.467 4.328a2.494 2.494 0 10-3.527-3.527 2.494 2.494 0 003.527 3.527zm-6.817 12.956a2.494 2.494 0 100-4.988 2.494 2.494 0 000 4.988zM42.055 17.18a2.494 2.494 0 10-3.527-3.527 2.494 2.494 0 003.527 3.527z" fill="#6094F9"/></svg>