<svg width="58" height="58" fill="none" xmlns="http://www.w3.org/2000/svg"><path d="M25.359 10.679a5.345 5.345 0 005.34-5.34A5.345 5.345 0 0025.358 0a5.345 5.345 0 00-5.34 5.34 5.345 5.345 0 005.34 5.339zm0-7.28c1.07 0 1.94.87 1.94 1.94 0 1.07-.87 1.941-1.94 1.941-1.07 0-1.941-.87-1.941-1.94 0-1.07.87-1.942 1.94-1.942zM56.3 25.48h-5.58v-1.94c0-3.531-2.365-7.882-7.28-8.818V8.979a1.7 1.7 0 00-1.701-1.699c-6.57 0-8.527 5.816-8.812 7.28H18.08c-5.964 0-10.8 4.825-10.8 10.8v3.323a4.696 4.696 0 00-4.37-.401A4.701 4.701 0 000 32.64a1.7 1.7 0 003.398-.004c0-.533.32-1.01.812-1.215a1.31 1.31 0 011.433.286l1.637 1.637v6.576c0 5.43 3.984 9.863 9.1 10.667v5.714A1.7 1.7 0 0018.08 58h7.28a1.7 1.7 0 001.699-1.7v-5.58h3.882v5.58c0 .94.76 1.7 1.7 1.7h7.28a1.7 1.7 0 001.699-1.7v-5.713c5.113-.804 9.1-5.234 9.1-10.667v-.12h5.58a1.7 1.7 0 001.7-1.7V27.18a1.7 1.7 0 00-1.7-1.7zM40.042 10.94v3.62h-3.614c.788-2.455 2.797-3.36 3.614-3.62zm-16.38 43.662H19.78V50.72h3.882v3.882zm14.56 0H34.34V50.72h3.882v3.882zm9.1-14.682a7.397 7.397 0 01-7.4 7.401H18.08a7.397 7.397 0 01-7.401-7.4V25.36a7.397 7.397 0 017.4-7.401H41.74a5.577 5.577 0 015.581 5.581v16.38zm7.28-3.519H50.72v-7.522h3.882v7.522z" fill="#6094F9"/><path d="M30.819 21.84h-10.92a1.7 1.7 0 000 3.399h10.92a1.7 1.7 0 100-3.398zm10.923 0a1.7 1.7 0 00-1.699 1.7v1.82a1.7 1.7 0 003.398 0v-1.82a1.7 1.7 0 00-1.699-1.7z" fill="#6094F9"/></svg>