<svg width="58" height="58" fill="none" xmlns="http://www.w3.org/2000/svg"><g clip-path="url(#clip0)" fill="#6094F9"><path d="M50.75 14.5a1.813 1.813 0 00-1.813-1.813c-10.082 0-18.72-6.786-18.806-6.853a1.812 1.812 0 00-2.264 0c-.085.07-8.684 6.854-18.805 6.854A1.812 1.812 0 007.25 14.5v16.313a21.75 21.75 0 0043.5 0V14.5zm-3.625 16.313a18.125 18.125 0 01-36.25 0V16.25A37.88 37.88 0 0029 9.499a37.88 37.88 0 0018.125 6.752v14.561z"/><path d="M21.219 28.625a1.812 1.812 0 00-2.563 2.563l7.25 7.25a1.812 1.812 0 002.563 0L41.156 25.75a1.812 1.812 0 00-2.562-2.563L27.187 34.593l-5.968-5.968z"/></g><defs><clipPath id="clip0"><path fill="#fff" d="M0 0h58v58H0z"/></clipPath></defs></svg>