<svg width="58" height="58" fill="none" xmlns="http://www.w3.org/2000/svg"><g clip-path="url(#clip0)" fill="#6094F9"><path d="M55.806 45.36a17.604 17.604 0 00-6.034-6.375l-9.557-5.996a14.06 14.06 0 001.01-1.497h.69a6.238 6.238 0 006.23-6.23v-7.817a6.24 6.24 0 00-5.278-6.157C41.536 4.852 35.824 0 29 0c-7.808 0-14.16 6.352-14.16 14.16v10.195c0 3.248 1.1 6.243 2.945 8.634l-9.557 5.996a17.605 17.605 0 00-6.034 6.375A17.602 17.602 0 000 53.859V56.3c0 .939.76 1.7 1.7 1.7h54.6a1.7 1.7 0 001.7-1.7v-2.44c0-2.966-.759-5.905-2.194-8.5zM39.762 14.5h-2.347a7.397 7.397 0 01-5.332-2.285l-1.852-1.945a1.7 1.7 0 00-1.228-.528H29a1.7 1.7 0 00-1.226.523L25.918 12.2a7.399 7.399 0 01-5.313 2.265h-2.367v-.305c0-5.934 4.828-10.762 10.762-10.762S39.762 8.226 39.762 14.16v.34zm-19.158 3.364c2.917 0 5.747-1.207 7.766-3.312l.625-.651.627.658a10.811 10.811 0 007.793 3.34h2.347v6.456c0 1.314-.237 2.574-.67 3.739h-7.713a1.7 1.7 0 100 3.398h5.668A10.738 10.738 0 0129 35.117c-5.934 0-10.762-4.827-10.762-10.761v-6.492h2.366zM29 38.516c2.677 0 5.183-.747 7.32-2.044-.395 3.691-3.526 6.575-7.32 6.575-3.794 0-6.925-2.884-7.32-6.575A14.075 14.075 0 0029 38.516zm15.746-21.07v7.816a2.837 2.837 0 01-2.058 2.723c.307-1.159.472-2.375.472-3.63v-9.452a2.835 2.835 0 011.586 2.542zm9.856 37.156H3.398v-.743c0-4.905 2.48-9.39 6.636-11.996l8.251-5.176c.508 5.465 5.12 9.758 10.715 9.758 5.596 0 10.207-4.293 10.715-9.758l8.252 5.177a14.082 14.082 0 016.635 11.995v.743z"/><path d="M47.125 47.805h-9.063a1.7 1.7 0 000 3.398h9.063a1.7 1.7 0 000-3.398z"/></g><defs><clipPath id="clip0"><path fill="#fff" d="M0 0h58v58H0z"/></clipPath></defs></svg>