<svg width="24" height="24" fill="none" xmlns="http://www.w3.org/2000/svg"><path d="M22.203 4.138H1.797C.805 4.138 0 4.943 0 5.935v12.13c0 .992.805 1.797 1.797 1.797h20.406c.992 0 1.797-.805 1.797-1.797V5.935c0-.992-.805-1.797-1.797-1.797z" fill="#41479B"/><path d="M23.975 5.638a1.798 1.798 0 00-1.772-1.5h-.468L14.069 9.16V4.138H9.931V9.16L2.265 4.138h-.468c-.891 0-1.63.649-1.772 1.5l6.552 4.293H0v4.138h6.577L.025 18.362c.142.85.881 1.5 1.772 1.5h.468l7.666-5.022v5.022h4.138V14.84l7.666 5.022h.468c.891 0 1.63-.649 1.772-1.5l-6.552-4.293H24V9.93h-6.577l6.552-4.293z" fill="#F5F5F5"/><path d="M13.241 4.138H10.76v6.62H0v2.483h10.759v6.621h2.482v-6.62H24v-2.483H13.241V4.138z" fill="#FF4B55"/><path d="M1.162 19.746l8.746-5.677h-1.52L.432 19.233a1.8 1.8 0 00.73.513zm15.075-5.677h-1.52l8.47 5.499c.238-.156.436-.366.577-.613l-7.527-4.886zM.19 5.132L7.584 9.93h1.52L.726 4.493a1.805 1.805 0 00-.536.639zm15.399 4.799l7.97-5.174a1.8 1.8 0 00-.736-.509L14.07 9.931h1.52z" fill="#FF4B55"/></svg>