<svg width="50" height="64" fill="none" xmlns="http://www.w3.org/2000/svg"><path fill-rule="evenodd" clip-rule="evenodd" d="M19.713.042c-.858.142-1.734.491-2.278.908-.994.761-1.7 1.98-1.936 3.343-.102.592-.062 1.616.085 2.145.06.216.15.481.199.59.049.107.09.219.09.247 0 .028-.106.142-.236.254l-.236.204-.155-.156c-.435-.438-1.118-.515-2.165-.246-.684.176-1.615.78-2.139 1.386-1.476 1.71-2.174 4.159-2.01 7.05.026.462.066.978.088 1.146.078.591.084.573-.25.677-.191.06-.556.112-1.052.152-.417.033-.859.082-.981.11l-.222.048-.03.598c-.078 1.612-.2 2.89-.394 4.14-.114.73-.138 1.312-.063 1.528.043.125.069.136.618.266.315.074.803.179 1.084.232.28.053.503.104.494.113a2.396 2.396 0 01-.294.095 6.477 6.477 0 00-.613.221l-.336.143.026.378.027.377-.146-.171a7.234 7.234 0 01-.194-.237c-.08-.108-.117.839-.06 1.587a41.9 41.9 0 00.223 1.942c.122.895.182 1.517.199 2.04l.023.754h-.212c-.45 0-.65.284-.79 1.116l-.08.477.208.187.207.187-.17.353c-.093.195-.162.368-.152.384.01.016.049.276.086.577.076.623.144.85.322 1.076l.125.16-.19 1.157c-.248 1.526-.517 3.382-.585 4.048-.05.486-.047.575.028.96.16.834.115 1.068-.385 1.975-.153.276-.32.62-.372.764a1.99 1.99 0 01-.347.563c-.351.417-.697.991-1.225 2.034-.512 1.012-.55 1.136-.688 2.291l-.088.742-.203.328c-.832 1.348-.925 1.592-.955 2.52-.025.76.015.997.209 1.243l.129.162-.152.71a52.063 52.063 0 01-.387 1.628l-.567 2.22-.332 1.304-.002.639c-.002.673.006.739.143 1.172.08.251.099.275.246.315.463.124 1.071.19 1.808.192.817.004 2.29-.09 2.414-.152.055-.028.079-.13.102-.443.034-.46-.044-.999-.187-1.282-.174-.344-.246-.85-.246-1.74 0-.692.016-.91.1-1.326a9.291 9.291 0 01.703-2.092l.268-.567.25-.091c.282-.104.578-.386.741-.707.054-.106.21-.536.347-.956.137-.42.375-1.038.53-1.375.154-.336.401-.873.55-1.193.147-.32.349-.82.447-1.113.197-.581.215-.79.144-1.644l-.034-.414.178-.459c.277-.712.423-.944.786-1.244.377-.312.59-.61.804-1.119.165-.393.262-.511.657-.796.438-.315.584-.606.689-1.378.11-.813.19-1.176.34-1.542.082-.197.269-.692.416-1.1.446-1.233.727-1.754 1.25-2.318.3-.324.356-.42.575-.99.08-.21.189-.435.24-.5l.092-.116.27.532c.148.293.353.647.456.788.21.288.365.354.834.358.569.006.49-.062 1.298 1.133a407.65 407.65 0 011.501 2.242c.429.645.856 1.256.95 1.358.348.38 1.016.548 1.593.399a5.28 5.28 0 01.29-.071c.031 0 .493.684.567.84.083.176.087.081-.069 1.702-.039.406-.05.436-.219.652-.394.502-.442.765-.328 1.784.04.347.119 1.17.177 1.83.1 1.143.116 1.235.307 1.9.148.513.207.804.225 1.1l.023.401.211.18.212.178v.445c0 .245.03.779.064 1.187.086.997.083 1.952-.005 2.182-.334.865-.4 1.12-.692 2.676l-.159.843.1.107c.158.17.515.322.845.362.2.024.57.014 1.104-.03l.803-.066.52.137a38.1 38.1 0 011.063.302l.543.163 1.908.001c1.358 0 2.022-.016 2.299-.057.214-.031.396-.064.404-.072.009-.008.026-.198.04-.422.03-.52-.038-.875-.191-.996-.201-.16-1.155-.608-1.637-.77-.475-.159-.575-.207-.844-.41-.166-.125-1.572-1.755-1.769-2.051-.316-.476-.374-.913-.354-2.666l.014-1.242.205-.418c.113-.23.228-.525.257-.654.084-.376.064-1.17-.043-1.769-.127-.711-.12-1.004.055-2.201.288-1.98.415-3.464.415-4.86v-.841l-.168-.237c-.157-.222-.17-.265-.217-.716a17.24 17.24 0 01-.05-.533c.001-.029-.082-.09-.184-.134-.189-.084-.466-.329-.466-.411 0-.08-.674-1.85-1.034-2.72-.467-1.124-1.082-2.469-1.354-2.957-.546-.982-1.44-2.234-2.365-3.313-.448-.522-.434-.486-.676-1.75l-.098-.514.16-.326c.104-.21.187-.327.233-.327.04 0 .254.06.478.131.47.152.718.165.91.048.233-.144.662-.948.84-1.578.071-.25.1-.53.131-1.22a29.4 29.4 0 01.128-1.68c.175-1.536.161-2.603-.04-3.06-.186-.422-.517-.716-1.01-.897-.197-.072-.248-.11-.227-.163.024-.064.222-.881.31-1.282l.035-.164 1.085.596c2.046 1.124 3.04 1.531 4.125 1.689.325.047.389.07.402.14.016.092.172.282.23.282.065 0 .038-.101-.052-.198l-.09-.096.327-.02c.45-.03.753-.19 1.348-.713.263-.23.585-.493.716-.585.481-.335.764-.735.927-1.312.038-.132.127-.574.198-.982.127-.72.223-1.116.301-1.238.021-.033.25-.125.51-.204l.471-.145-.01-.158a10.396 10.396 0 00-.18-.887c-.22-.928-.303-1.398-.311-1.755-.013-.52-.038-.473.461-.87.523-.418.78-.7.974-1.074.126-.242.16-.272.49-.443l.355-.183 2.634-.003 2.635-.002.062-.098c.035-.054.077-.232.093-.396.026-.249.043-.295.102-.275l.309.111c.323.12.738.117 1.185-.007.34-.094.428-.098 2.003-.098h1.649l.238.121c.235.12.246.121.63.077a11.53 11.53 0 011.045-.045h.655l.028-.295c.015-.162.028-.349.028-.415v-.12h-.842c-.746 0-.866-.01-1.045-.087-.263-.114-.288-.112-.508.042-.183.127-.198.13-.923.158-.406.016-1.238.015-1.85-.003l-1.112-.032.022-.443c.02-.404.014-.452-.069-.552l-.091-.109-.145.17-.144.17-.203-.257-.204-.257V6.41l-.206.014-.206.013-.012 1.211-.011 1.211h-.477l.028-.305.029-.306H27.765l-.014-.207-.013-.207-.395-.106-.395-.106-.027-.375a2.985 2.985 0 00-.1-.592l-.074-.218-.052.129c-.03.07-.127.446-.218.834l-.164.706-.35.023a4.13 4.13 0 00-.85.177c-.806.248-1.012.291-1.376.291h-.344l-.053-.49c-.03-.27-.064-.678-.078-.906l-.025-.415.373-.103c.447-.123.84-.305.967-.448a1.08 1.08 0 00.16-.322c.282-.9.19-1.94-.28-3.193-.12-.322-.133-.392-.09-.504.04-.109.033-.16-.047-.325-.088-.183-.127-.212-.572-.425a13.222 13.222 0 01-1.058-.59C22.058.48 21.57.262 21.023.13c-.416-.1-1.004-.14-1.31-.09zm11.076 11.994c.05.162.108.406.13.543.037.247.036.25-.112.393a2.046 2.046 0 00-.302.45 6.234 6.234 0 01-1.071 1.495c-.237.247-.443.434-.459.415a4.01 4.01 0 01-.172-.361c-.079-.18-.258-.536-.398-.79s-.255-.506-.255-.559c0-.215.08-.28.942-.763l.442-.248-.09-.155c-.087-.147-.088-.162-.022-.303a.928.928 0 01.252-.28c.172-.125.202-.132.602-.132h.422l.091.295z" fill="#fff"/></svg>